<?xml version="1.0" encoding="UTF-8"?>
<!DOCTYPE svg PUBLIC "-//W3C//DTD SVG 1.1//EN" "http://www.w3.org/Graphics/SVG/1.1/DTD/svg11.dtd">
<!-- Creator: CorelDRAW 2020 (64-Bit) -->
<svg xmlns="http://www.w3.org/2000/svg" xml:space="preserve" width="2421px" height="591px" version="1.1" shape-rendering="geometricPrecision" text-rendering="geometricPrecision" image-rendering="optimizeQuality" fill-rule="evenodd" clip-rule="evenodd"
viewBox="0 0 2421 590.49"
 xmlns:xlink="http://www.w3.org/1999/xlink"
 xmlns:xodm="http://www.corel.com/coreldraw/odm/2003">
 <g id="Capa_x0020_1">
  <metadata id="CorelCorpID_0Corel-Layer"/>
  <g id="_2710046194640">
   <path  d="M1546.1 211.34c2.01,2.2 2.75,0.94 5.67,2.72 0.13,-2.82 0.77,-6.94 0.84,-9.06 0.14,-3.89 -0.46,-3.75 -0.39,-9.77 24.53,-8.76 20.21,-16.14 31.44,-24.22l2.4 -1.53c0.39,-0.25 0.91,-0.52 1.32,-0.78 0.44,-0.26 0.97,-0.55 1.42,-0.82l3.06 -1.84c0.4,-0.25 1.12,-0.6 1.62,-1 -3.42,-7.54 -6.72,-2.18 -8.09,-8.17 -0.87,-3.84 -1.49,-0.59 6.56,-4.11l9.5 -2.63c0.31,-0.07 0.92,-0.2 1.24,-0.27 0.3,-0.07 0.9,-0.21 1.21,-0.29l8.07 -2.64c-2.01,-7.28 -0.64,-2.43 -3.86,-8.71 -12.01,-3.75 -27.75,-11.46 -42.42,-15.69 -11.67,-3.36 -37.11,-9.85 -49.34,-8.99 -3.59,22.89 18.47,82.95 29.75,97.8zm369.74 -151.23c-4.84,10.05 -2.01,-1.73 -4.21,7.15 -3.64,14.68 0.41,4.77 1.76,7.31l1.98 4.28c3.4,6.38 13.61,10.28 26.58,27.46 0.25,0.33 0.67,0.98 1.05,1.43l13.35 0.25c0.64,6.26 2.06,9.62 5,14.79 3.89,6.84 5.31,7.18 5.51,17.03l14.1 0.32c0.87,10.3 6.53,19.26 11.02,25.96 6.69,-2.5 6.9,-5.29 11.62,-9.54 8.89,-20.19 16.13,-33.96 23.63,-58.7 5.96,-19.63 14.51,-48.66 13.62,-70.34 -29.9,-2.23 -103.92,20.85 -125.01,32.6zm-369.74 151.23c6.69,23.11 38.5,51.1 59.73,65.37 9.65,6.5 28.02,16.62 39.96,21.31 10.45,4.11 39.8,13.44 50.2,13.8 -1.81,-4.01 -17.08,-14.31 -27.03,-23.86 -23.04,-22.14 -60.54,-63.92 -68.12,-92.68 25.06,8.27 54.91,34.34 71.6,51.1 11.13,11.16 18.36,20.07 27.5,31.73l23.75 34.36c3.17,-24.93 -21.23,-82.4 -36.6,-106.45 -18.61,-29.13 -47.67,-54.6 -78.98,-67.8 3.22,6.28 1.85,1.43 3.86,8.71l-8.07 2.64c-0.31,0.08 -0.91,0.22 -1.21,0.29 -0.32,0.07 -0.93,0.2 -1.24,0.27l-9.5 2.63c-8.05,3.52 -7.43,0.27 -6.56,4.11 1.37,5.99 4.67,0.63 8.09,8.17 -0.5,0.4 -1.22,0.75 -1.62,1l-3.06 1.84c-0.45,0.27 -0.98,0.56 -1.42,0.82 -0.41,0.26 -0.93,0.53 -1.32,0.78l-2.4 1.53c-11.23,8.08 -6.91,15.46 -31.44,24.22 -0.07,6.02 0.53,5.88 0.39,9.77 -0.07,2.12 -0.71,6.24 -0.84,9.06 -2.92,-1.78 -3.66,-0.52 -5.67,-2.72zm457.5 -54.79c-4.72,4.25 -4.93,7.04 -11.62,9.54 -4.49,-6.7 -10.15,-15.66 -11.02,-25.96l-14.1 -0.32c-0.2,-9.85 -1.62,-10.19 -5.51,-17.03 -2.94,-5.17 -4.36,-8.53 -5,-14.79l-13.35 -0.25c-0.38,-0.45 -0.8,-1.1 -1.05,-1.43 -12.97,-17.18 -23.18,-21.08 -26.58,-27.46l-1.98 -4.28c-1.35,-2.54 -5.4,7.37 -1.76,-7.31 2.2,-8.88 -0.63,2.9 4.21,-7.15 -31.39,8.68 -70.37,41.4 -90.55,63.23 -2.41,2.6 -3.11,3.46 -5.67,6.66 -1.04,1.31 -0.86,1.26 -2.68,3.48 -3.33,4.07 -1.68,2.08 -3.8,4.22 -17.48,17.65 -37.88,59.75 -46.87,83.4 -9.2,24.19 -19.28,52.21 -20.8,83.34 9.14,-3.4 13.56,-15.8 18.42,-23.39 2.63,-4.1 5.94,-8.61 8.52,-11.7 23.91,-28.63 28.97,-39.84 61.11,-67.63 18.17,-15.71 67.29,-57.67 87.45,-59.69 -1.27,23.13 -71.49,109.16 -95.36,130.54l-42.29 35.34 31.87 -5.33c40.25,-12.76 51.82,-13.28 101.1,-44.93l33.74 -25.79c7.54,-6.8 44.24,-52.72 53.57,-75.31zm-810.77 308.96c-16.1,6.31 -14.58,28.07 2.09,32.69 10.28,2.85 16.55,0.21 25.68,-1.33 7.09,-1.2 9.33,3.84 24.59,1.62l-11.44 -11.41c3.21,-7.69 7.21,-11.65 9.81,-21.87l-15.24 -0.51 -4.26 11.38c-6.02,-3.1 -5.67,-3.51 -10.37,-9.2 0.02,-0.03 26.62,-25.56 -1.22,-30.04 -7.95,-1.28 -18.77,-0.07 -22.73,5.82 -6.16,9.14 -0.36,15.69 3.09,22.85zm-1071.95 36.13c-3,-52.17 -1.61,-97.59 13.6,-146.73 6.33,-20.48 -1.86,-26.26 -23.35,-26.87 -43.73,-1.25 -49.25,16.84 -54.95,55.39 -4.96,33.56 -8.5,120.01 6.66,152.41 6.98,14.91 18.68,15.37 36,19.23 29.33,6.55 126.45,21.31 135.5,-20.77 13.22,-61.51 -24.68,-33.67 -61.03,-30.55 -12.83,1.11 -40.53,1.96 -52.43,-2.11zm2148.59 6.43c-40.32,18.15 -73.76,-26.44 -84.25,-19.57 -10.04,11.34 -6.46,37.68 3.51,45.88 7.55,6.22 29.76,17.24 42.31,21.34 34.92,11.39 80.04,8.55 107.33,-9.26 25.01,-16.34 44.46,-53.03 15.56,-81.72 -8.31,-8.26 -25.68,-19.33 -37.36,-26.14 -13.63,-7.95 -33.1,-14.09 -33.98,-30.91 27.75,-11.09 69.23,20.58 75.48,-3.58 1.41,-5.46 0.14,-9.45 -1.74,-14.07 -15.48,-37.98 -84.68,-34.61 -117.18,-24.23 -29.34,9.37 -63.23,42.23 -41.17,79.16 8.12,13.61 39.75,31.64 55.42,42.77 8.62,6.13 15.35,6.78 16.07,20.33zm-270.67 -2.96c-13.18,16.09 -48.58,3.47 -63.96,-8.19 -7.28,-5.51 -9.43,-9.92 -20.34,-9.33 -9.21,16.76 -8.78,34.87 5.55,47.84 31.46,28.48 111.22,38.09 149.27,9.71 23.53,-17.55 44.41,-53.56 13.75,-81.32 -26.6,-24.08 -71.57,-36.36 -71.11,-54.99 13.35,-9.28 37.42,0.34 53.38,3.78 38.87,8.37 28.82,-48.82 -33.02,-52.31 -21.74,-1.23 -43.27,-1.02 -63.05,5.33 -28.48,9.13 -64.61,40.64 -43.05,77.33 14.58,24.83 70.5,45.34 72.58,62.15zm-1232.18 -26.11c-34.41,-22.47 -84.51,-135.11 -94.08,-138.51 -16.63,-5.92 -46.56,16.36 -49.26,27.96 -8,34.33 77.27,170.18 122.89,186.65 61.11,22.07 74.52,-6.36 90.96,-51.99 12.98,-36.04 24.54,-85.84 27.25,-126.7 1.99,-29.97 -1.12,-43.59 -27.12,-50.38 -35.56,-9.29 -38.54,-2.52 -41.63,28.18 -3.37,33.52 -9.89,63.97 -19.24,95.85 -3.07,10.47 -7.06,19.16 -9.77,28.94zm-371.65 39.95c26.8,0.47 42.71,-5.81 64.63,-7.74 16.1,25.77 0.71,70.31 56.61,42.74 31.44,-15.51 15.79,-53.85 6.59,-84.04 -8.44,-27.71 -20.51,-57.06 -32.52,-81.14 -13.37,-26.83 -27.49,-52.5 -57.65,-58.71 -21.58,-4.44 -32.39,-1.96 -43.57,10.08 -23.91,25.76 -43.44,85.18 -53.16,119.34 -6.61,23.26 -22.23,77.55 -2.12,93.19 7.62,5.92 33.08,15.32 46.34,10.38 11.27,-4.2 13.17,-29.76 14.85,-44.1zm1287.64 1.09c9.48,-1.98 23.58,-1.95 33.92,-3.34 11.11,-1.5 21.12,-4.4 31.92,-6.12 0.96,5.57 10.13,40.17 12.4,44.34 7.08,12.98 32.21,4.61 43.56,-1.23 29.41,-15.13 16.67,-49.53 5.35,-84.48 -9.76,-30.1 -20.32,-55.33 -32.52,-81.04 -12.36,-26.09 -27.18,-52.39 -58.2,-58.28 -36.87,-6.99 -47.68,9.71 -65.11,45.63 -12.03,24.78 -23.22,56.52 -31.02,84.9 -5.57,20.24 -21.36,76.31 -2.48,91.88 8.81,7.27 30.94,15.44 46.38,11.03 12.82,-3.66 12.65,-30.5 15.8,-43.29zm-657.83 -0.1c10.27,-1.87 22.8,-1.63 34.01,-3.12 11.14,-1.47 20.96,-4.13 31.9,-6.17 8.37,43.96 13.56,64.66 56.02,43.04 29.55,-15.04 16.65,-50.04 5.33,-84.53 -13.85,-42.2 -41.7,-130.29 -90.54,-139.33 -36.52,-6.76 -48.7,9.84 -65.2,45.78 -13.55,29.48 -62.54,152.06 -33.5,176.67 8.15,6.9 31.78,15.07 46.42,11.19 12.77,-3.38 12.42,-28.68 15.56,-43.53zm370.3 -109.06c-9.38,-26.25 -13.18,-33.02 -28.03,-51.45 -10.5,-13.04 -45.54,-20.45 -59.71,-6.01 -23.4,23.82 -56.35,143.79 -49.64,185.06 2.01,12.36 6.22,16.79 17.63,20.55 9.08,3 26.37,6.6 36.79,4.47 18.9,-3.88 9.92,-25.71 13.95,-65.93 1.73,-17.3 5.44,-53.84 15.28,-64.93 7.13,6.2 8.81,18.32 11.39,27.32 14.67,51.29 9.31,73.41 42.54,73.03 31.52,-0.37 26.74,-17.86 32.55,-44.63 2.62,-12.06 9.85,-48.99 21.4,-56.29 9.4,10.12 13.44,49.83 14.85,62.85 5.74,53.09 -12.15,80.48 45.13,64.3 11.37,-3.21 18.28,-8.02 20.53,-20.2 7.7,-41.71 -25.61,-167.29 -48.54,-187.64 -11.7,-10.39 -39.49,-9.47 -56.96,8.75 -5.56,5.79 -11.2,14.01 -15.88,22.89 -4.14,7.85 -7.52,21.31 -13.28,27.86zm295.83 78.2l46.41 -5.37c-6.54,-19.89 -16.26,-37.52 -24.94,-54.71 -7.17,9.78 -19.21,45.9 -21.47,60.08zm-657.83 0.09c14.51,-0.9 33.74,-1.78 46.33,-6.61 -6.52,-18.25 -16.39,-36.83 -24.7,-53.52 -6.79,8.75 -19.56,47.14 -21.63,60.13zm-629.88 -0.26l46.71 -4.98 -20.93 -47.57c-4.87,-7.56 2.6,2.93 -1.89,-2.67 -3.43,-4.28 -0.22,-0.83 -3.82,-3.93 -6.04,19.05 -14.65,37.62 -20.07,59.15z"/>
   <path  d="M2114.57 85.64c-18.76,17.88 7.75,45.7 27.25,27.55 16.96,-15.78 -7.3,-46.58 -27.25,-27.55zm102.92 -21.93c-14.83,18.21 -17.88,37.9 1.55,56.15 35.96,33.77 91.71,-22.1 52.87,-58.1 -13.49,-12.51 -39.43,-16.47 -54.42,1.95zm-129.59 80.16c-39.72,39.65 15.45,91.23 53.61,56.55 36.95,-33.57 -17.65,-92.43 -53.61,-56.55zm100.68 15.96c-47.4,45.63 19,115.09 65.47,71.05 17.32,-16.43 23.55,-45.35 2.23,-68.01 -15.25,-16.21 -46.61,-23.33 -67.7,-3.04z"/>
   <path  fill-rule="nonzero" d="M58.3 125l20.48 0 0 114.08 16.2 0 0 34.34 -36.68 0 0 -148.42zm113.58 148.42l-21.27 0 -3.44 -24.78 -21.6 0 -3.59 24.78 -20.87 0 23.91 -148.42 22.96 0 23.9 148.42zm-28.63 -51.46c-3.06,-22.08 -5.35,-43.11 -6.89,-63.07l-0.25 0c-1.64,20.53 -3.9,41.55 -6.83,63.07l13.97 0zm25.68 -96.96l21.33 0 11.15 65.58c2.13,12.98 3.55,24.06 4.31,33.24l0.28 0c0.67,-8.08 1.43,-14.68 2.24,-19.88l12.42 -78.94 21.88 0 -27.09 148.42 -18.97 0 -27.55 -148.42zm142.56 148.42l-21.28 0 -3.43 -24.78 -21.6 0 -3.6 24.78 -20.86 0 23.9 -148.42 22.96 0 23.91 148.42zm-28.63 -51.46c-3.07,-22.08 -5.35,-43.11 -6.9,-63.07l-0.25 0c-1.64,20.53 -3.89,41.55 -6.82,63.07l13.97 0zm38.98 -96.96l20.65 0 26.01 85.62 -0.74 -16.02 0 -69.6 20.47 0 0 148.42 -21 0 -25.47 -84.28 0.55 18.48 0 65.8 -20.47 0 0 -148.42zm85.78 0l19.11 0c13.23,0 23.3,6.19 30.2,18.63 6.87,12.41 10.32,30.55 10.32,54.42 0,18.07 -1.7,32.68 -5.09,43.8 -3.41,11.12 -8.16,19.16 -14.25,24.13 -6.11,4.97 -12.86,7.44 -20.24,7.44l-20.05 0 0 -148.42zm20.47 31.57l0 85.16c6.2,-0.87 10.6,-4.51 13.16,-10.85 2.56,-6.34 3.85,-16.77 3.85,-31.27 0,-8.61 -0.46,-15.9 -1.36,-21.86 -0.9,-5.96 -2.24,-10.55 -4.01,-13.77 -1.78,-3.23 -3.5,-5.2 -5.21,-5.96 -1.68,-0.76 -3.83,-1.22 -6.43,-1.45zm52.95 -31.57l41.4 0 0 31.57 -20.93 0 0 27.37 18.16 0 0 30.77 -18.16 0 0 27.02 21.07 0 0 31.69 -41.54 0 0 -148.42zm57.68 0l23.83 0c9.64,0 17.25,4.06 22.82,12.22 5.61,8.16 8.39,19.24 8.39,33.24 0,7.22 -1.06,14.16 -3.18,20.84 -2.12,6.72 -5.21,11.76 -9.24,15.18l16.34 66.94 -21.62 0 -16.55 -67.59 -0.32 0 0 67.59 -20.47 0 0 -148.42zm20.47 28.69l0 35.22c9.03,-0.27 13.57,-5.5 13.57,-15.68 0,-6.86 -1.06,-11.8 -3.15,-14.76 -2.08,-2.96 -5.56,-4.55 -10.42,-4.78zm50.78 -28.69l20.47 0 0 148.42 -20.47 0 0 -148.42zm-0.88 -11.91l9.46 -33.25 21.27 0 -18.65 33.25 -12.08 0zm104.41 160.33l-21.28 0 -3.43 -24.78 -21.6 0 -3.6 24.78 -20.86 0 23.9 -148.42 22.96 0 23.91 148.42zm-28.63 -51.46c-3.07,-22.08 -5.35,-43.11 -6.9,-63.07l-0.25 0c-1.64,20.53 -3.9,41.55 -6.82,63.07l13.97 0zm72.89 -96.96l25.33 0c8.9,0 16.07,4.18 21.46,12.56 5.42,8.39 8.12,19.43 8.12,33.13 0,14.46 -2.75,25.77 -8.21,33.97 -5.46,8.19 -13.05,12.29 -22.73,12.29l-3.5 0 0 56.47 -20.47 0 0 -148.42zm20.47 28.46l0 35.03c4.59,-0.15 7.97,-1.59 10.16,-4.36 2.17,-2.74 3.28,-7.06 3.28,-12.98 0,-6.38 -1.06,-10.89 -3.18,-13.51 -2.12,-2.66 -5.54,-4.02 -10.26,-4.18zm49.91 -28.46l23.83 0c9.64,0 17.25,4.06 22.82,12.22 5.61,8.16 8.4,19.24 8.4,33.24 0,7.22 -1.06,14.16 -3.19,20.84 -2.12,6.72 -5.21,11.76 -9.24,15.18l16.34 66.94 -21.62 0 -16.55 -67.59 -0.32 0 0 67.59 -20.47 0 0 -148.42zm20.47 28.69l0 35.22c9.03,-0.27 13.57,-5.5 13.57,-15.68 0,-6.86 -1.06,-11.8 -3.15,-14.76 -2.08,-2.96 -5.56,-4.55 -10.42,-4.78zm79.41 123.41c-10.88,0 -19.2,-6.9 -24.92,-20.64 -5.71,-13.74 -8.57,-33.59 -8.57,-59.54 0,-23.95 2.88,-42.58 8.62,-55.98 5.74,-13.36 13.74,-20.08 24,-20.08 10.95,0 19.31,6.72 25.1,20.16 5.79,13.39 8.67,32.56 8.67,57.45 0,24.93 -2.84,44.25 -8.53,57.99 -5.72,13.74 -13.83,20.64 -24.37,20.64zm-0.74 -122.54c-7.37,0 -11.06,14.27 -11.06,42.81 0,18.37 0.92,30.66 2.79,36.81 1.87,6.15 4.59,9.22 8.14,9.22 3.82,0 6.77,-3.07 8.83,-9.22 2.02,-6.15 3.06,-18.21 3.06,-36.13 0,-28.99 -3.92,-43.49 -11.76,-43.49zm48.83 -29.56l41.4 0 0 31.8 -20.93 0 0 27.14 18.42 0 0 30.77 -18.42 0 0 58.71 -20.47 0 0 -148.42zm54.77 0l41.4 0 0 31.57 -20.93 0 0 27.37 18.17 0 0 30.77 -18.17 0 0 27.02 21.07 0 0 31.69 -41.54 0 0 -148.42zm57.68 145.65l0 -34.57c6.48,6.22 11.94,9.33 16.34,9.33 2.56,0 4.59,-1.17 6.09,-3.52 1.47,-2.32 2.21,-5.43 2.21,-9.26 0,-2.96 -0.6,-5.77 -1.77,-8.35 -1.2,-2.58 -3.25,-5.73 -6.18,-9.45 -7.08,-8.88 -12.2,-17.19 -15.38,-24.86 -3.18,-7.67 -4.75,-16.2 -4.75,-25.61 0,-12.83 2.45,-23.27 7.36,-31.35 4.91,-8.08 11.25,-12.15 19.04,-12.15 5.76,0 11.48,2.05 17.15,6.15l0 33.25c-6.06,-5.51 -11,-8.24 -14.78,-8.24 -2.53,0 -4.52,1.03 -5.99,3.04 -1.45,2.05 -2.19,4.85 -2.19,8.42 0,6.23 3.41,13.21 10.19,20.99 4.05,4.59 8.18,11.08 12.33,19.39 4.17,8.35 6.25,18.03 6.25,28.99 0,12.83 -2.72,23.42 -8.16,31.84 -5.47,8.43 -12.36,12.64 -20.75,12.64 -5.72,0 -11.39,-2.24 -17.01,-6.68zm61.32 -145.65l20.47 0 0 148.42 -20.47 0 0 -148.42zm69.82 152.1c-10.88,0 -19.2,-6.9 -24.92,-20.64 -5.71,-13.74 -8.57,-33.59 -8.57,-59.54 0,-23.95 2.88,-42.58 8.62,-55.98 5.74,-13.36 13.74,-20.08 24,-20.08 10.94,0 19.31,6.72 25.1,20.16 5.79,13.39 8.67,32.56 8.67,57.45 0,24.93 -2.84,44.25 -8.53,57.99 -5.72,13.74 -13.83,20.64 -24.37,20.64zm-0.74 -122.54c-7.37,0 -11.06,14.27 -11.06,42.81 0,18.37 0.92,30.66 2.79,36.81 1.86,6.15 4.59,9.22 8.14,9.22 3.82,0 6.77,-3.07 8.82,-9.22 2.03,-6.15 3.07,-18.21 3.07,-36.13 0,-28.99 -3.92,-43.49 -11.76,-43.49zm48.83 -29.56l20.65 0 26.01 85.62 -0.74 -16.02 0 -69.6 20.47 0 0 148.42 -21 0 -25.47 -84.28 0.55 18.48 0 65.8 -20.47 0 0 -148.42zm148.85 148.42l-21.28 0 -3.43 -24.78 -21.6 0 -3.6 24.78 -20.86 0 23.9 -148.42 22.96 0 23.91 148.42zm-28.63 -51.46c-3.07,-22.08 -5.35,-43.11 -6.9,-63.07l-0.25 0c-1.64,20.53 -3.9,41.55 -6.82,63.07l13.97 0zm38.98 -96.96l20.47 0 0 114.08 16.2 0 0 34.34 -36.67 0 0 -148.42z"/>
  </g>
 </g>
</svg>
